<!DOCTYPE svg PUBLIC "-//W3C//DTD SVG 1.1//EN" "http://www.w3.org/Graphics/SVG/1.1/DTD/svg11.dtd">
<!-- Uploaded to: SVG Repo, www.svgrepo.com, Transformed by: SVG Repo Mixer Tools -->
<svg fill="#000000" version="1.1" id="Capa_1" xmlns="http://www.w3.org/2000/svg" xmlns:xlink="http://www.w3.org/1999/xlink" width="64px" height="64px" viewBox="0 0 587.911 587.91" xml:space="preserve" transform="matrix(-1, 0, 0, 1, 0, 0)">
<g id="SVGRepo_bgCarrier" stroke-width="0"/>
<g id="SVGRepo_tracerCarrier" stroke-linecap="round" stroke-linejoin="round"/>
<g id="SVGRepo_iconCarrier"> <g> <g> <g> <path d="M86.452,501.459c26.937,26.936,58.315,48.088,93.265,62.871c36.206,15.314,74.641,23.08,114.239,23.08 s78.032-7.766,114.239-23.08c34.949-14.781,66.328-35.936,93.265-62.871c26.937-26.938,48.09-58.316,62.872-93.266 c15.313-36.207,23.078-74.643,23.078-114.239c0-39.597-7.765-78.032-23.078-114.239c-14.782-34.95-35.936-66.328-62.872-93.265 s-58.315-48.09-93.265-62.873C371.988,8.264,333.553,0.5,293.956,0.5s-78.033,7.765-114.239,23.079 c-34.95,14.782-66.329,35.936-93.265,62.873c-26.937,26.937-48.09,58.315-62.872,93.265C8.266,215.922,0.5,254.357,0.5,293.955 c0,39.596,7.765,78.032,23.079,114.239C38.362,443.143,59.515,474.521,86.452,501.459z M293.956,43.34 c138.411,0,250.615,112.204,250.615,250.615S432.367,544.568,293.956,544.568c-138.41,0-250.615-112.203-250.615-250.614 S155.545,43.34,293.956,43.34z"/> <path d="M293.956,587.91c-39.664,0-78.165-7.778-114.434-23.119c-35.01-14.809-66.442-35.998-93.424-62.979 c-26.982-26.983-48.172-58.416-62.979-93.425C7.778,372.118,0,333.617,0,293.955c0-39.664,7.778-78.165,23.119-114.434 c14.807-35.008,35.996-66.441,62.979-93.423c26.982-26.982,58.415-48.172,93.424-62.979C215.791,7.778,254.292,0,293.956,0 c39.665,0,78.166,7.778,114.434,23.118c35.01,14.808,66.441,35.997,93.424,62.979s48.172,58.415,62.979,93.423 c15.339,36.269,23.117,74.77,23.117,114.434c0,39.664-7.778,78.165-23.117,114.433c-14.808,35.009-35.997,66.441-62.979,93.425 c-26.984,26.983-58.417,48.173-93.424,62.979C372.12,580.132,333.619,587.91,293.956,587.91z M293.956,1 c-39.529,0-77.899,7.751-114.044,23.039c-34.89,14.757-66.216,35.875-93.106,62.766c-26.891,26.891-48.008,58.217-62.765,93.106 C8.752,216.056,1,254.426,1,293.955c0,39.528,7.751,77.898,23.039,114.044c14.757,34.889,35.875,66.215,62.766,93.106 c26.89,26.889,58.216,48.006,93.106,62.764c36.145,15.289,74.515,23.041,114.044,23.041c39.528,0,77.898-7.752,114.045-23.041 c34.887-14.755,66.212-35.871,93.105-62.764c26.891-26.892,48.008-58.218,62.765-93.106 c15.288-36.146,23.039-74.516,23.039-114.044c0-39.529-7.751-77.899-23.039-114.044c-14.756-34.889-35.873-66.215-62.765-93.106 C474.215,59.914,442.89,38.797,408,24.039C371.856,8.751,333.486,1,293.956,1z M293.956,545.068 c-67.075,0-130.136-26.12-177.565-73.55c-47.43-47.429-73.55-110.489-73.55-177.564c0-67.075,26.121-130.136,73.55-177.565 s110.49-73.55,177.565-73.55s130.136,26.121,177.565,73.55s73.55,110.49,73.55,177.565c0,67.075-26.12,130.135-73.55,177.564 C424.091,518.948,361.031,545.068,293.956,545.068z M293.956,43.84c-66.808,0-129.617,26.017-176.858,73.257 C69.857,164.337,43.84,227.146,43.84,293.955s26.017,129.617,73.257,176.857s110.05,73.257,176.858,73.257 c66.809,0,129.618-26.017,176.858-73.257s73.257-110.049,73.257-176.857s-26.017-129.617-73.257-176.858 C423.574,69.856,360.764,43.84,293.956,43.84z"/> </g> <g> <path d="M177.265,416.432h64.02c0.07,8.041,1.741,15.807,4.968,23.09c3.145,7.096,7.619,13.396,13.299,18.725 c10.876,10.205,25.069,15.824,39.965,15.824c14.448,0,28.329-5.404,39.087-15.217l133.687-121.945 c12.049-10.99,18.959-26.646,18.959-42.954c0-16.308-6.911-31.964-18.959-42.955L338.603,129.055 c-10.758-9.812-24.639-15.216-39.087-15.216c-14.896,0-29.089,5.619-39.965,15.823c-5.68,5.329-10.155,11.63-13.299,18.727 c-3.227,7.282-4.897,15.046-4.967,23.088h-64.02c-32.059,0-58.14,26.082-58.14,58.14v128.674 C119.125,390.352,145.206,416.432,177.265,416.432z M161.964,229.618c0-8.45,6.85-15.3,15.3-15.3h91.557 c8.45,0,15.3-6.85,15.3-15.3v-27.008c0-9.17,7.51-15.33,15.395-15.33c3.546,0,7.169,1.247,10.217,4.026l133.687,121.945 c6.652,6.068,6.652,16.539,0,22.607L309.733,427.205c-3.048,2.779-6.669,4.025-10.217,4.025c-7.883,0-15.395-6.16-15.395-15.33 v-27.008c0-8.449-6.85-15.301-15.3-15.301h-91.557c-8.45,0-15.3-6.85-15.3-15.299V229.618z"/> <path d="M299.517,474.57c-15.024,0-29.339-5.668-40.308-15.96c-5.728-5.372-10.241-11.727-13.414-18.887 c-3.188-7.193-4.871-14.858-5.005-22.792h-63.526c-32.334,0-58.64-26.306-58.64-58.641V229.617 c0-32.334,26.306-58.64,58.64-58.64h63.526c0.134-7.933,1.816-15.598,5.004-22.791c3.172-7.158,7.685-13.514,13.414-18.889 c10.969-10.291,25.284-15.958,40.308-15.958c14.572,0,28.573,5.45,39.424,15.346L472.627,250.63 c12.152,11.086,19.122,26.877,19.122,43.324c0,16.448-6.97,32.239-19.122,43.323L338.941,459.223 C328.09,469.12,314.089,474.57,299.517,474.57z M177.265,171.977c-31.783,0-57.64,25.857-57.64,57.64v128.674 c0,31.783,25.857,57.641,57.64,57.641h64.515l0.004,0.496c0.07,7.972,1.727,15.674,4.925,22.892 c3.119,7.036,7.555,13.281,13.185,18.562c10.783,10.117,24.854,15.688,39.623,15.688c14.322,0,28.084-5.357,38.75-15.086 l133.687-121.945c11.945-10.896,18.796-26.417,18.796-42.584c0-16.167-6.851-31.688-18.796-42.585L338.266,129.424 c-10.666-9.728-24.428-15.085-38.75-15.085c-14.769,0-28.841,5.571-39.623,15.688c-5.631,5.283-10.067,11.529-13.185,18.564 c-3.198,7.217-4.854,14.918-4.924,22.89l-0.004,0.496H177.265z M299.516,431.73c-9.818,0-15.895-8.217-15.895-15.83v-27.008 c0-8.161-6.639-14.801-14.8-14.801h-91.557c-8.712,0-15.8-7.087-15.8-15.799V229.618c0-8.712,7.088-15.8,15.8-15.8h91.557 c8.161,0,14.8-6.639,14.8-14.8v-27.008c0-7.613,6.077-15.83,15.895-15.83c3.923,0,7.572,1.438,10.554,4.157l133.687,121.945 c3.274,2.987,5.152,7.241,5.152,11.672c0,4.432-1.878,8.687-5.152,11.673L310.07,427.574 C307.088,430.293,303.439,431.73,299.516,431.73z M177.265,214.817c-8.161,0-14.8,6.64-14.8,14.8v128.675 c0,8.16,6.64,14.799,14.8,14.799h91.557c8.712,0,15.8,7.088,15.8,15.801V415.9c0,9.16,7.731,14.83,14.895,14.83 c3.669,0,7.086-1.347,9.88-3.895l133.687-121.947c3.067-2.798,4.826-6.784,4.826-10.935c0-4.15-1.759-8.136-4.826-10.933 L309.396,161.075c-2.795-2.549-6.211-3.896-9.88-3.896c-9.323,0-14.895,7.541-14.895,14.83v27.008c0,8.712-7.088,15.8-15.8,15.8 H177.265z"/> </g> </g> </g> </g>
</svg>